<svg id="_858a34c753a19cf75db1151323fafdd4" data-name="858a34c753a19cf75db1151323fafdd4" xmlns="http://www.w3.org/2000/svg" width="39.129" height="62.181" viewBox="0 0 39.129 62.181">
  <g id="Group_14" data-name="Group 14" transform="translate(0 0)">
    <path id="Path_58" data-name="Path 58" d="M208.7-500.9a19.8,19.8,0,0,0-15.5,11.783,18.8,18.8,0,0,0-1.455,8.989c.692,6.007,5.834,18.007,14.362,33.435,3.472,6.281,4.279,7.635,4.725,7.779.864.3,1.052.1,3.011-3.328,6.987-12.2,13.224-25.124,15.443-32,1.541-4.783,1.829-7.448,1.167-10.948A19.75,19.75,0,0,0,214.935-500.7,27.568,27.568,0,0,0,208.7-500.9Zm5.95,2.492a17.578,17.578,0,0,1,12.043,9.263,15.346,15.346,0,0,1,1.714,7.462,11.386,11.386,0,0,1-.518,4.12c-1.326,5.042-4.826,13.138-9.695,22.5-2.982,5.7-6.8,12.634-6.973,12.634-.259,0-6.281-11.15-9.219-17.071-3.962-8.009-6.253-13.57-7.448-18.079a11.351,11.351,0,0,1-.533-4.033,15.425,15.425,0,0,1,.26-3.313,17.228,17.228,0,0,1,4.754-8.729,17.357,17.357,0,0,1,10.242-5.013A28.543,28.543,0,0,1,214.647-498.411Z" transform="translate(-191.655 500.998)" fill="#858381"/>
    <path id="Path_59" data-name="Path 59" d="M346.543-355.649a10.239,10.239,0,0,0-5.488,2.938,9.947,9.947,0,0,0-2.622,4.235,7.458,7.458,0,0,0-.36,3.054,7.765,7.765,0,0,0,.374,3.1,9.918,9.918,0,0,0,2.622,4.178,9.917,9.917,0,0,0,4.178,2.622,7.77,7.77,0,0,0,3.1.374,7.769,7.769,0,0,0,3.1-.374,9.919,9.919,0,0,0,4.178-2.622,9.917,9.917,0,0,0,2.622-4.178,7.767,7.767,0,0,0,.374-3.1,7.767,7.767,0,0,0-.374-3.1,9.918,9.918,0,0,0-2.622-4.177,9.462,9.462,0,0,0-6.842-3.025A14.215,14.215,0,0,0,346.543-355.649Zm3.328,2.319a8.344,8.344,0,0,1,4.149,2.233,8.047,8.047,0,0,1,.015,11.366,8.021,8.021,0,0,1-11.366-.015,7.964,7.964,0,0,1,0-11.351A7.981,7.981,0,0,1,349.871-353.33Z" transform="translate(-328.78 364.949)" fill="#858381"/>
    <path id="Path_60" data-name="Path 60" d="M465.44-229.134a2.28,2.28,0,0,0-.662,3.7,2.281,2.281,0,0,0,3.846-2.1A2.342,2.342,0,0,0,465.44-229.134Z" transform="translate(-446.813 246.559)" fill="#858381"/>
  </g>
</svg>
