<svg xmlns="http://www.w3.org/2000/svg" xmlns:xlink="http://www.w3.org/1999/xlink" width="19.109" height="19.109" viewBox="0 0 19.109 19.109">
  <defs>
    <clipPath id="clip-path">
      <rect width="19.109" height="19.109" fill="none"/>
    </clipPath>
  </defs>
  <g id="_6635486791578982984" data-name="6635486791578982984" clip-path="url(#clip-path)">
    <g id="_6635486791578982984-2" data-name="6635486791578982984" transform="translate(0 0)">
      <g id="Group_11" data-name="Group 11" transform="translate(6.437 16.01)">
        <g id="Group_10" data-name="Group 10" transform="translate(0 0)">
          <path id="Path_15" data-name="Path 15" d="M171.206,402.828a1.55,1.55,0,1,0,1.55,1.55A1.551,1.551,0,0,0,171.206,402.828Zm0,2.234a.684.684,0,1,1,.684-.684A.685.685,0,0,1,171.206,405.062Z" transform="translate(-169.656 -402.828)" fill="#bababa"/>
        </g>
      </g>
      <g id="Group_13" data-name="Group 13" transform="translate(12.43 16.01)">
        <g id="Group_12" data-name="Group 12" transform="translate(0 0)">
          <path id="Path_16" data-name="Path 16" d="M329.151,402.828a1.55,1.55,0,1,0,1.55,1.55A1.551,1.551,0,0,0,329.151,402.828Zm0,2.234a.684.684,0,1,1,.684-.684A.685.685,0,0,1,329.151,405.062Z" transform="translate(-327.601 -402.828)" fill="#bababa"/>
        </g>
      </g>
      <g id="Group_15" data-name="Group 15" transform="translate(7.5 5.963)">
        <g id="Group_14" data-name="Group 14" transform="translate(0 0)">
          <path id="Path_17" data-name="Path 17" d="M197.628,165.755h-6.2a.433.433,0,0,0,0,.865h6.2a.433.433,0,1,0,0-.865Z" transform="translate(-190.996 -165.755)" fill="#bababa"/>
        </g>
      </g>
      <g id="Group_17" data-name="Group 17" transform="translate(7.827 8.618)">
        <g id="Group_16" data-name="Group 16" transform="translate(0 0)">
          <path id="Path_18" data-name="Path 18" d="M206.759,231.035h-5.525a.433.433,0,1,0,0,.865h5.525a.433.433,0,0,0,0-.865Z" transform="translate(-200.802 -231.035)" fill="#bababa"/>
        </g>
      </g>
      <g id="Group_19" data-name="Group 19" transform="translate(0 0)">
        <g id="Group_18" data-name="Group 18" transform="translate(0 0)">
          <path id="Path_19" data-name="Path 19" d="M18.9,22.932a.9.9,0,0,0-.727-.39H3.556l-.3-1.617a1.043,1.043,0,0,0-.545-.758L.656,19.158a.45.45,0,0,0-.617.275.558.558,0,0,0,.243.7l2.059,1.009,2.27,12.44a.978.978,0,0,0,.919.846h11.24a.534.534,0,0,0,0-1.059H5.531l-.276-1.513h11.6a.978.978,0,0,0,.919-.846l1.312-7.191A1.158,1.158,0,0,0,18.9,22.932Zm-2.04,7.86H5.061L3.749,23.6H18.17Z" transform="translate(0 -19.114)" fill="#bababa"/>
        </g>
      </g>
    </g>
  </g>
</svg>
