<svg id="adidas-logo-vector" xmlns="http://www.w3.org/2000/svg" width="119.727" height="119.727" viewBox="0 0 119.727 119.727">
  <path id="Path_2530" data-name="Path 2530" d="M0,0H119.727V119.727H0Z" fill="rgba(255,255,255,0)" fill-rule="evenodd"/>
  <path id="Path_2531" data-name="Path 2531" d="M97.546,161.5c-1.425-.226-2.694-.3-2.694-1.061a1.066,1.066,0,0,1,.452-.816,2.709,2.709,0,0,1,1.321-.262,1.7,1.7,0,0,1,1.183.522,1.771,1.771,0,0,1,.417.887h2.312a2.841,2.841,0,0,0-1.078-2.156,4.364,4.364,0,0,0-2.626-1.044,4.92,4.92,0,0,0-2.92.591,3,3,0,0,0-1.287,2.226,3.187,3.187,0,0,0,.14,1.321,4.484,4.484,0,0,0,1.181,1.27,15.887,15.887,0,0,0,2.817.7c.643.156,1.425.191,1.6.835a.822.822,0,0,1-.365.956,2.54,2.54,0,0,1-1.391.382,1.824,1.824,0,0,1-1.409-.521,4.448,4.448,0,0,1-.574-1.148H92.312a3.887,3.887,0,0,0,1.373,2.7,4.459,4.459,0,0,0,2.886.852,5.239,5.239,0,0,0,3.061-.765,3.173,3.173,0,0,0,1.181-2.45,2.893,2.893,0,0,0-.539-1.756,4.088,4.088,0,0,0-2.729-1.252ZM67.4,167.448h2.347v-9.737H67.4Zm0-10.4h2.365V154.7H67.4ZM63.974,159a5.481,5.481,0,0,0-3.2-1.183h-.122a4.886,4.886,0,0,0,0,9.771h.122a4.608,4.608,0,0,0,3.182-1.339l.017,1.2H66.2V154.7H63.974V159Zm-3.181,6.589h-.017a2.9,2.9,0,0,1,0-5.806h.017a2.9,2.9,0,1,1,0,5.806Zm17.75-6.624a5.479,5.479,0,0,0-3.2-1.182h-.122a4.894,4.894,0,1,0,0,9.788h.122a4.738,4.738,0,0,0,3.182-1.357v1.2h2.225V154.686H78.526Zm-3.2,6.607a2.9,2.9,0,1,1,2.921-2.921A2.938,2.938,0,0,1,75.345,165.569Zm-22.706-7.859v.922a2.527,2.527,0,0,0-1.182-.835,5.731,5.731,0,0,0-1.739-.348h-.1a5.187,5.187,0,0,0-2,.365,4.716,4.716,0,0,0-1.6,1.148,4.956,4.956,0,0,0-1.391,3.529,5.02,5.02,0,0,0,5.094,5.147h.017a5.344,5.344,0,0,0,1.756-.366,2.2,2.2,0,0,0,1.147-.7v.887l2.26-.017-.017-9.754-2.243.017Zm-2.9,7.719h-.017a2.886,2.886,0,0,1,0-5.772h.017a2.886,2.886,0,1,1,0,5.772Zm39.779-7.754.017.921a2.907,2.907,0,0,0-1.181-.835,5.853,5.853,0,0,0-1.739-.33h-.1a5.52,5.52,0,0,0-2,.348,4.622,4.622,0,0,0-1.6,1.148,4.714,4.714,0,0,0-1.044,1.635,5.352,5.352,0,0,0-.365,1.912,5,5,0,0,0,1.479,3.668,4.925,4.925,0,0,0,3.634,1.46,4.792,4.792,0,0,0,1.755-.365,2.255,2.255,0,0,0,1.165-.7v.887l2.26-.017-.034-9.736H89.514Zm-2.9,7.737a2.895,2.895,0,1,1,2.9-2.9A2.921,2.921,0,0,1,86.611,165.413Zm16.169-12.883a.062.062,0,0,1-.035-.017,2.739,2.739,0,1,0,0,5.477h.035a2.73,2.73,0,0,0,0-5.46Zm0,5.024a2.277,2.277,0,1,1,2.294-2.277A2.292,2.292,0,0,1,102.779,157.554Z" transform="translate(-16.907 -57.782)" fill-rule="evenodd"/>
  <path id="Path_2532" data-name="Path 2532" d="M87.746,103.9a1.884,1.884,0,0,0-.33-.26.882.882,0,0,0,.591-.3.75.75,0,0,0,.209-.522,1.13,1.13,0,0,0-.14-.486.872.872,0,0,0-.348-.278,2.221,2.221,0,0,0-.7-.069H85.763v2.972h.609v-1.252h.1a1.284,1.284,0,0,1,.312.035.315.315,0,0,1,.158.1c0,.017.017.017.017.035a1.745,1.745,0,0,1,.33.417l.434.66h.713l-.365-.573a3.616,3.616,0,0,0-.329-.487Zm-.8-.66h-.574v-.748h.574a1.337,1.337,0,0,1,.33.017.342.342,0,0,1,.225.1.268.268,0,0,1,.088.225.368.368,0,0,1-.07.243c-.051.035-.1.087-.157.122-.069.017-.207.017-.416.035ZM51.34,87.555H31.5c5.928,3.668,12.866,6.1,20.758,7.737l-.922-7.737Zm15.126.017-1.183,7.267a64.925,64.925,0,0,0,20.985-7.267Zm-2.278-.035-10.9.017a37.357,37.357,0,0,0,5.7,8.415A39.949,39.949,0,0,0,64.188,87.538ZM93.518,82.7l-69.386-.035c-2.312-1.843-3.877-2.8-5.737-5.25H99.341A46.746,46.746,0,0,1,93.518,82.7Zm10.343-11.3-89.674.035a38.927,38.927,0,0,1-3.425-5.876h96.525a32.118,32.118,0,0,1-3.426,5.841ZM39.691,59.2,8.38,59.216A71.639,71.639,0,0,1,2.834,37.276C18.969,40.144,31.417,46.768,39.691,59.2Zm32.077.052H46.02c-.574-16.569,4.016-33.381,12.883-43.5C67.909,25.61,72.569,42.352,71.769,59.251Zm38.161-.035-31.921.017c8.814-12.4,21.471-19.4,37.866-21.889A72.471,72.471,0,0,1,109.93,59.216Zm3.008-36.336a.218.218,0,0,0-.1-.017,6.137,6.137,0,1,0,0,12.274h.1a6.128,6.128,0,0,0,0-12.257Zm0,11.3a5.12,5.12,0,1,1,5.146-5.129A5.165,5.165,0,0,1,112.937,34.181Z" transform="translate(-1.074 -5.968)" fill-rule="evenodd"/>
  <path id="Path_2533" data-name="Path 2533" d="M180.3,36.1a4.066,4.066,0,0,0-.712-.574,2.081,2.081,0,0,0,1.338-.643,1.716,1.716,0,0,0,.435-1.2,2.239,2.239,0,0,0-.313-1.078,1.535,1.535,0,0,0-.8-.608,4.183,4.183,0,0,0-1.564-.208H175.9v6.693h1.3v-2.8h.278a2.339,2.339,0,0,1,.7.07,1.243,1.243,0,0,1,.33.226c.018.017.053.035.07.052.1.157.347.47.712.991l.956,1.46h1.617l-.8-1.286a6.682,6.682,0,0,0-.765-1.1Zm-1.791-1.5h-1.3V32.956h1.3a6.608,6.608,0,0,1,.73.017.75.75,0,0,1,.522.261.636.636,0,0,1,.175.521,1.051,1.051,0,0,1-.122.522.941.941,0,0,1-.4.261,5.742,5.742,0,0,1-.9.07Z" transform="translate(-66.642 -12.045)" fill-rule="evenodd"/>
</svg>
