<svg xmlns="http://www.w3.org/2000/svg" width="26.531" height="31.061" viewBox="0 0 26.531 31.061">
  <g id="Page-1" transform="translate(0 0)">
    <g id="Social-Icons---Isolated" transform="translate(0 0)">
      <path id="Apple" d="M72.585,956.042a6.839,6.839,0,0,0,1.5-5.042,7.3,7.3,0,0,0-4.72,2.555,6.327,6.327,0,0,0-1.545,4.919,6.15,6.15,0,0,0,4.762-2.431Zm8.946,17.747a22.449,22.449,0,0,1-2.006,3.766c-1.3,2-3.137,4.482-5.414,4.5-2.021.022-2.542-1.324-5.285-1.308s-3.315,1.334-5.339,1.314c-2.275-.02-4.014-2.263-5.316-4.259-3.642-5.578-4.025-12.125-1.779-15.608a8.058,8.058,0,0,1,6.485-3.919c2.409,0,3.925,1.33,5.92,1.33,1.935,0,3.113-1.333,5.9-1.333a7.862,7.862,0,0,1,5.935,3.15,6.845,6.845,0,0,0,.9,12.368Z" transform="translate(-55 -951)" fill="#fff" fill-rule="evenodd"/>
    </g>
  </g>
</svg>
