<svg xmlns="http://www.w3.org/2000/svg" width="14.116" height="15.711" viewBox="0 0 14.116 15.711">
  <path id="filtering" d="M39.811,5.608H38.276V4.518a.307.307,0,0,0-.282-.306l-.56-.046a4.437,4.437,0,0,0-.539-1.3l.364-.428a.307.307,0,0,0-.017-.416l-.988-.988a.307.307,0,0,0-.416-.017l-.428.364a4.436,4.436,0,0,0-1.3-.539l-.046-.56A.307.307,0,0,0,33.758,0h-1.4a.307.307,0,0,0-.306.282l-.046.56a4.438,4.438,0,0,0-1.3.539l-.429-.364a.307.307,0,0,0-.416.017l-.988.988a.307.307,0,0,0-.017.416l.364.428a4.437,4.437,0,0,0-.539,1.3l-.56.046a.307.307,0,0,0-.282.306v1.09H26.309A.307.307,0,0,0,26,5.915V7.756a.307.307,0,0,0,.1.229l5.728,5.1V15.4a.307.307,0,0,0,.4.291l1.841-.614a.307.307,0,0,0,.21-.291v-1.7l5.728-5.1a.307.307,0,0,0,.1-.229V5.915a.307.307,0,0,0-.307-.307ZM28.457,4.8l.506-.041a.307.307,0,0,0,.277-.25,3.84,3.84,0,0,1,.619-1.494.307.307,0,0,0-.019-.373l-.329-.387.588-.588L30.486,2a.307.307,0,0,0,.373.019A3.841,3.841,0,0,1,32.353,1.4a.307.307,0,0,0,.25-.277l.041-.506h.831l.041.506a.307.307,0,0,0,.25.277,3.84,3.84,0,0,1,1.494.619A.307.307,0,0,0,35.633,2l.387-.329.588.588-.329.387a.307.307,0,0,0-.019.373,3.841,3.841,0,0,1,.619,1.494.307.307,0,0,0,.277.25l.506.041v.807H35.948a2.915,2.915,0,1,0-5.777,0H28.457Zm2.335.807a2.3,2.3,0,1,1,4.536,0Zm8.712.614V7.45H26.616V6.222Zm-5.728,6.5a.307.307,0,0,0-.1.229v1.62l-1.227.409V12.95a.307.307,0,0,0-.1-.229L27.115,8.063H39Z" transform="translate(-26.002)"/>
</svg>
