<svg xmlns="http://www.w3.org/2000/svg" width="15.301" height="22.951" viewBox="0 0 15.301 22.951">
  <g id="_5309966691579885163_1_" data-name="5309966691579885163 (1)" transform="translate(-99.213 -123.305)">
    <g id="Group_764" data-name="Group 764" transform="translate(99.213 123.305)">
      <g id="Group_763" data-name="Group 763">
        <path id="Path_2353" data-name="Path 2353" d="M106.863,123.3a7.651,7.651,0,0,0-6.732,11.286l6.313,11.418a.478.478,0,0,0,.837,0l6.316-11.422a7.652,7.652,0,0,0-6.734-11.282Zm5.9,10.823-5.9,10.662-5.893-10.657a6.694,6.694,0,1,1,11.788,0Z" transform="translate(-99.213 -123.305)" fill="#707070"/>
        <path id="Path_2354" data-name="Path 2354" d="M202.252,222.518a3.825,3.825,0,1,0,3.825,3.825A3.83,3.83,0,0,0,202.252,222.518Zm0,6.694a2.869,2.869,0,1,1,2.869-2.869A2.872,2.872,0,0,1,202.252,229.212Z" transform="translate(-194.602 -218.693)" fill="#707070"/>
      </g>
    </g>
  </g>
</svg>
