<svg xmlns="http://www.w3.org/2000/svg" width="26.435" height="28.838" viewBox="0 0 26.435 28.838">
  <g id="_10160912521581334478" data-name="10160912521581334478" transform="translate(0 0)">
    <path id="Path_493" data-name="Path 493" d="M153.862,147.286l-14.079,13.82a3.041,3.041,0,0,1-1.183-2.4V135.9a2.977,2.977,0,0,1,1.183-2.4Z" transform="translate(-138.6 -132.877)" fill="#fff"/>
    <path id="Path_494" data-name="Path 494" d="M285.184,215.88a3.039,3.039,0,0,1-1.543,2.647l-4.426,2.455L274,215.891l5.215-5.091,4.426,2.478A2.954,2.954,0,0,1,285.184,215.88Z" transform="translate(-258.75 -201.47)" fill="#ffc107"/>
    <path id="Path_495" data-name="Path 495" d="M168.394,261.091l-16.05,8.965a3.04,3.04,0,0,1-1.442.36,2.736,2.736,0,0,1-1.487-.405,2.943,2.943,0,0,1-.315-.191L163.179,256Z" transform="translate(-147.917 -241.579)" fill="#f44336"/>
    <path id="Path_496" data-name="Path 496" d="M168.394,137.289l-5.215,5.091-14.079-13.8a2.933,2.933,0,0,1,.315-.191,2.9,2.9,0,0,1,2.928-.045Z" transform="translate(-147.917 -127.971)" fill="#4caf50"/>
  </g>
</svg>
